<svg width="30" height="20" viewBox="0 0 30 20" fill="none" xmlns="http://www.w3.org/2000/svg">
<rect width="30" height="20" rx="4" fill="black"/>
<path d="M7.79419 5.57703V14.001H5.74219V5.57703H7.79419Z" fill="white"/>
<path d="M12.3293 14.085C11.7133 14.085 11.1613 13.985 10.6733 13.785C10.1853 13.585 9.79325 13.289 9.49725 12.897C9.20925 12.505 9.05725 12.033 9.04125 11.481H11.2253C11.2573 11.793 11.3653 12.033 11.5493 12.201C11.7333 12.361 11.9733 12.441 12.2693 12.441C12.5733 12.441 12.8133 12.373 12.9893 12.237C13.1652 12.093 13.2532 11.897 13.2532 11.649C13.2532 11.441 13.1812 11.269 13.0373 11.133C12.9012 10.997 12.7292 10.885 12.5213 10.797C12.3212 10.709 12.0333 10.609 11.6573 10.497C11.1133 10.329 10.6693 10.161 10.3253 9.99303C9.98125 9.82503 9.68525 9.57703 9.43725 9.24903C9.18925 8.92103 9.06525 8.49303 9.06525 7.96503C9.06525 7.18103 9.34925 6.56903 9.91725 6.12903C10.4852 5.68103 11.2253 5.45703 12.1373 5.45703C13.0653 5.45703 13.8132 5.68103 14.3812 6.12903C14.9492 6.56903 15.2533 7.18503 15.2933 7.97703H13.0733C13.0573 7.70503 12.9573 7.49303 12.7733 7.34103C12.5893 7.18103 12.3533 7.10103 12.0652 7.10103C11.8173 7.10103 11.6173 7.16903 11.4653 7.30503C11.3133 7.43303 11.2373 7.62103 11.2373 7.86903C11.2373 8.14103 11.3653 8.35303 11.6213 8.50503C11.8773 8.65703 12.2773 8.82103 12.8213 8.99703C13.3653 9.18103 13.8053 9.35703 14.1412 9.52503C14.4853 9.69303 14.7812 9.93703 15.0293 10.257C15.2773 10.577 15.4012 10.989 15.4012 11.493C15.4012 11.973 15.2773 12.409 15.0293 12.801C14.7893 13.193 14.4373 13.505 13.9732 13.737C13.5092 13.969 12.9613 14.085 12.3293 14.085Z" fill="white"/>
<path d="M20.6481 14.085C19.8561 14.085 19.1281 13.901 18.4641 13.533C17.8081 13.165 17.2841 12.653 16.8921 11.997C16.5081 11.333 16.3161 10.589 16.3161 9.76503C16.3161 8.94103 16.5081 8.20103 16.8921 7.54503C17.2841 6.88903 17.8081 6.37703 18.4641 6.00903C19.1281 5.64103 19.8561 5.45703 20.6481 5.45703C21.4401 5.45703 22.1641 5.64103 22.8201 6.00903C23.4841 6.37703 24.0041 6.88903 24.3801 7.54503C24.7641 8.20103 24.9561 8.94103 24.9561 9.76503C24.9561 10.589 24.7641 11.333 24.3801 11.997C23.9961 12.653 23.4761 13.165 22.8201 13.533C22.1641 13.901 21.4401 14.085 20.6481 14.085ZM20.6481 12.213C21.3201 12.213 21.8561 11.989 22.2561 11.541C22.6641 11.093 22.8681 10.501 22.8681 9.76503C22.8681 9.02103 22.6641 8.42903 22.2561 7.98903C21.8561 7.54103 21.3201 7.31703 20.6481 7.31703C19.9681 7.31703 19.4241 7.53703 19.0161 7.97703C18.6161 8.41703 18.4161 9.01303 18.4161 9.76503C18.4161 10.509 18.6161 11.105 19.0161 11.553C19.4241 11.993 19.9681 12.213 20.6481 12.213Z" fill="white"/>
</svg>
