<svg width="36" height="36" viewBox="0 0 36 36" fill="none" xmlns="http://www.w3.org/2000/svg">
<path d="M12 30C12.5523 30 13 29.5523 13 29C13 28.4477 12.5523 28 12 28C11.4477 28 11 28.4477 11 29C11 29.5523 11.4477 30 12 30Z" stroke="black" stroke-width="2" stroke-linecap="round" stroke-linejoin="round"/>
<path d="M23 30C23.5523 30 24 29.5523 24 29C24 28.4477 23.5523 28 23 28C22.4477 28 22 28.4477 22 29C22 29.5523 22.4477 30 23 30Z" stroke="black" stroke-width="2" stroke-linecap="round" stroke-linejoin="round"/>
<path d="M4 9H8L10.68 22.39C10.7714 22.8504 11.0219 23.264 11.3875 23.5583C11.7532 23.8526 12.2107 24.009 12.68 24H22.4C22.8693 24.009 23.3268 23.8526 23.6925 23.5583C24.0581 23.264 24.3086 22.8504 24.4 22.39L26 14H9" stroke="black" stroke-width="2" stroke-linecap="round" stroke-linejoin="round"/>
</svg>
