<svg width="24" height="24" viewBox="0 0 24 24" fill="none" xmlns="http://www.w3.org/2000/svg">
<path fill-rule="evenodd" clip-rule="evenodd" d="M12.0016 6.01094C7.8646 6.01094 4.51094 9.3646 4.51094 13.5016C4.51094 17.6385 7.8646 20.9922 12.0016 20.9922C16.1385 20.9922 19.4922 17.6385 19.4922 13.5016C19.4922 9.3646 16.1385 6.01094 12.0016 6.01094ZM2.49219 13.5016C2.49219 8.24968 6.74968 3.99219 12.0016 3.99219C17.2534 3.99219 21.5109 8.24968 21.5109 13.5016C21.5109 18.7534 17.2534 23.0109 12.0016 23.0109C6.74968 23.0109 2.49219 18.7534 2.49219 13.5016Z" fill="black"/>
<path fill-rule="evenodd" clip-rule="evenodd" d="M12.0016 7.38672C12.559 7.38672 13.0109 7.83863 13.0109 8.39609V12.8723L15.853 14.2933C16.3516 14.5426 16.5537 15.1489 16.3044 15.6475C16.0551 16.1461 15.4488 16.3482 14.9502 16.0989L11.5502 14.3989C11.2082 14.2279 10.9922 13.8784 10.9922 13.4961V8.39609C10.9922 7.83863 11.4441 7.38672 12.0016 7.38672Z" fill="black"/>
<path fill-rule="evenodd" clip-rule="evenodd" d="M8.5 2C8.5 1.44772 8.94772 1 9.5 1H14.5C15.0523 1 15.5 1.44772 15.5 2C15.5 2.55228 15.0523 3 14.5 3H9.5C8.94772 3 8.5 2.55228 8.5 2Z" fill="black"/>
</svg>
